<svg width="115" height="41" viewBox="0 0 115 41" fill="none" xmlns="http://www.w3.org/2000/svg"><path fill-rule="evenodd" clip-rule="evenodd" d="M15.5197 1.05737h-.1688L0 2.71895V31.4945l15.3509 9.3437 15.3509-9.3437V2.71895L15.5197 1.05737zm61.4986 1.56448h-1.9307V15.7311h1.9307V2.62185zm-36.1564.01079v5.13579c.7512-.78203 1.7767-1.22483 2.8486-1.23.9718-.05935 1.9224.30652 2.6148 1.00636.6924.69983 1.0613 1.66765 1.0146 2.66201v5.5566H45.367v-5.2976c.0561-.51683-.0916-1.03521-.4104-1.44027-.3189-.40506-.7826-.66335-1.2883-.71763h-.3165c-1.0062.06189-1.9197.6216-2.4477 1.49974v5.95576h-2.0046V2.63264h1.9624zM77.0183 31.4837h-1.7408v-1.4242c-.7947 1.0758-2.0475 1.6943-3.3656 1.6616-2.4368-.1683-4.3294-2.2389-4.3294-4.7366 0-2.4978 1.8926-4.5683 4.3294-4.7366 1.2076-.0427 2.3699.4724 3.1652 1.4026v-5.33h1.9412v13.1632zm-29.9527-1.4242c.1974-.008.3927-.0443.5803-.1079v1.435c-.3977.1538-.8199.2306-1.245.2266-.7527.0637-1.4615-.3703-1.7619-1.079-.9354.7758-2.1088 1.1885-3.3129 1.1653-1.5931 0-3.0701-.8955-3.0701-2.7513 0-2.2982 2.1101-3.0103 3.9142-3.0103.77.0126 1.5368.1029 2.2894.2697v-.3236c0-1.079-.8018-1.9098-2.3105-1.9098-1.0906.0022-2.1687.2374-3.1652.6905v-1.8342c1.0839-.3795 2.2201-.5799 3.3656-.5934 2.4899 0 4.0198 1.2084 4.0198 3.9382v3.2368c-.0147.1547.0317.3089.1288.4285.097.1195.2368.1944.3881.2081h.1794v.0108zm-6.7945-1.2192c.0269.3887.205.7502.4944 1.0037.2895.2534.6662.3777 1.046.345h.116c.9544.0016 1.8698-.3868 2.5427-1.079v-1.5321c-.6282-.1365-1.2676-.2124-1.9097-.2266-1.055 0-2.2788.3561-2.2788 1.489h-.0106zm15.7518-5.9019c-.8267-.4752-1.7633-.7138-2.7114-.6905h-.3693c-1.209.0394-2.3531.5687-3.1803 1.4713-.8272.9026-1.2696 2.1044-1.2298 3.3408v.4424c.1636 2.498 2.2729 4.3897 4.7161 4.2294 1.0037.0237 1.9995-.1866 2.9119-.615v-1.845c-.7832.4497-1.6656.6873-2.5638.6906-1.0764.0664-2.1-.4831-2.6578-1.4268-.5579-.9438-.5579-2.1261 0-3.0698.5578-.9438 1.5814-1.4933 2.6578-1.4268.8647-.0033 1.7103.2599 2.4266.7552v-1.8558zm10.1285 7.1211c.1974-.008.3927-.0443.5803-.1079v1.435c-.3977.1538-.8199.2306-1.245.2266-.7527.0637-1.4615-.3703-1.7619-1.079-.9354.7758-2.1088 1.1885-3.3129 1.1653-1.5931 0-3.0702-.8955-3.0702-2.7513 0-2.2982 2.1101-3.0103 3.9143-3.0103.7699.0126 1.5368.1029 2.2894.2697v-.3236c0-1.079-.8018-1.9098-2.3105-1.9098-1.0906.0022-2.1687.2374-3.1652.6905v-1.8342c1.0839-.3795 2.22-.5799 3.3656-.5934 2.4899 0 4.0197 1.2084 4.0197 3.9382v3.2368c-.0146.1547.0318.3089.1288.4285.0971.1195.2369.1944.3882.2081h.1794v.0108zm-6.2964-.2114c-.2918-.2538-.4713-.617-.4981-1.0078h.0211c0-1.1329 1.1605-1.489 2.2789-1.489.6421.0142 1.2814.0901 1.9096.2266V29.11c-.6728.6922-1.5883 1.0806-2.5426 1.079h-.1161c-.3815.0357-.7609-.0871-1.0528-.3409zm9.4721-2.9176c0-1.6446 1.3037-2.9779 2.9119-2.9779l.0211.054c1.2141 0 2.3141.7316 2.8064 1.8666v2.1579c-.4809 1.156-1.5992 1.8985-2.8275 1.8773-1.6082 0-2.9119-1.3332-2.9119-2.9779zm14.0215-4.6826c3.4922 0 4.7055 2.8916 4.1358 5.4918H80.922c.2216 1.6185 1.7619 2.2766 3.3656 2.2766.9633.0033 1.9151-.2142 2.7853-.6366v1.7264c-.9993.436-2.079.6458-3.1651.615-2.6693 0-5.0115-1.5321-5.0115-4.769-.0601-1.2019.3519-2.3785 1.1445-3.268.7926-.8896 1.9-1.4183 3.0757-1.4686h.2321v.0324zm-2.4793 3.9274c.1011-1.3516 1.2523-2.3649 2.5743-2.2658h.0422c.6206-.0564 1.2338.1705 1.6754.62s.6663 1.0756.614 1.7105h-4.9059v-.0647zm8.6197 5.2868v-8.966h1.7408v1.0789c.7479-.8553 1.8112-1.3521 2.933-1.3703 1.1323-.0719 2.2084.5116 2.7854 1.5106.7925-.8818 1.8995-1.3992 3.0698-1.435.934-.0476 1.841.3208 2.489 1.0098.647.6891.971 1.6312.887 2.5831v5.6105h-2.004v-5.5566c.047-.4537-.084-.908-.366-1.2624-.281-.3543-.688-.5795-1.1323-.6257h-.2743c-.8662.0551-1.6649.497-2.1839 1.2084v6.2363h-2.0046v-5.5566c.0439-.4571-.0932-.9132-.3808-1.266-.2875-.3529-.7014-.5731-1.149-.6114h-.211c-.9415.0847-1.7966.5952-2.3317 1.3919v6.0745h-1.8252l-.0422-.054zm24.488-8.9876h-2.005l-2.648 6.7973-3.018-6.7865h-2.11l4.221 9.0631-.18.4532c-.517 1.3595-1.234 2.05-2.184 2.05-.303.0032-.606-.0404-.897-.1295v1.694c.38.0964.77.1471 1.161.151 1.329 0 2.585-.7445 3.534-3.0858l4.126-10.2068zM52.689 6.78658V3.54974l-1.9624.46395v2.71895H49.144v1.75868h1.6459v4.49918c-.0668.8265.2345 1.6396.8201 2.2133.5855.5737 1.3928.8467 2.1973.743.7923.0067 1.5802-.1209 2.3317-.3776v-1.7263c-.5663.2352-1.1718.3561-1.783.3561-1.1395 0-1.667-.3885-1.667-1.5753V8.5129h3.1651V6.78658H52.689zm5.6972 8.96602V6.75421h1.7514v1.07895c.7435-.85661 1.8027-1.35716 2.9225-1.38105 1.1023-.07112 2.1545.47931 2.7431 1.435.7926-.88177 1.8996-1.39917 3.0702-1.435.9404-.03749 1.8499.34648 2.4906 1.05142.6406.70493.9486 1.66065.8433 2.61697v5.6213h-2.0045v-5.5565c.0471-.45379-.0844-.90809-.3655-1.26243-.2812-.35434-.6888-.57953-1.1327-.62576h-.2427c-.8662.05517-1.6649.49709-2.1839 1.20842v6.23627h-2.0046v-5.5565c.0472-.45379-.0843-.90809-.3655-1.26243-.2811-.35434-.6888-.57953-1.1327-.62576h-.2426c-.9415.0847-1.7966.59518-2.3317 1.39184v6.07445h-1.8147v-.0108zm-29.689 14.5507l.0106-.0065-.0106.0216v-.0151zm0-11.9828v11.9828l-13.3463 8.1288-13.34631-8.1137V18.5147l13.28301 8.0921v1.4243l-9.10503-5.5027v1.4134l9.15783 5.6214v1.4997l-9.14728-5.5674v1.4566l9.15778 5.6213 9.2317-5.6537v-6.1068l4.1146-2.4924zm.0106-1.5429l-3.6716 2.1579-1.688 1.079-8.0395-4.9308v1.4134l6.8473 4.2295-.1477.0971-1.0551.5826-5.6656-3.4526v1.4458l4.4734 2.7189-1.055.7229-3.3762-2.05v1.4134l2.2156 1.3379-2.2472 1.3595L2.11009 16.864 15.3087 8.72869l13.3991 8.04891zM15.2876 7.27211l13.4202 8.08129V4.56395l-13.3463-1.435-13.34636 1.435V15.3534L15.2876 7.27211z" fill="#231F20"/></svg>
